<svg xmlns="http://www.w3.org/2000/svg" width="9.4" height="10.743" viewBox="0 0 9.4 10.743">
  <path id="Icon_metro-attachment" data-name="Icon metro-attachment" d="M10.184,5.359,9.5,4.678,6.1,8.085A1.446,1.446,0,1,0,8.14,10.129l4.089-4.088A2.409,2.409,0,1,0,8.822,2.634L4.528,6.927l-.009.009a3.36,3.36,0,0,0,4.752,4.751l.009-.009h0l2.93-2.93-.682-.681L8.6,11l-.009.009A2.4,2.4,0,0,1,5.2,7.617l.009-.009h0L9.5,3.315a1.446,1.446,0,0,1,2.045,2.044L7.458,9.448a.482.482,0,0,1-.682-.681l3.408-3.407Z" transform="translate(-3.535 -1.928)" fill="#c7cad0"/>
</svg>
