<svg xmlns="http://www.w3.org/2000/svg" width="16.278" height="17.948" viewBox="0 0 16.278 17.948">
  <g id="Group_59438" data-name="Group 59438" transform="translate(-1.879 -1.044)">
    <path id="Vector" d="M.626,3.757A.631.631,0,0,1,0,3.13V.626A.631.631,0,0,1,.626,0a.631.631,0,0,1,.626.626v2.5A.631.631,0,0,1,.626,3.757Z" transform="translate(6.053 1.044)" fill="#c7cad0"/>
    <path id="Vector-2" data-name="Vector" d="M.626,3.757A.631.631,0,0,1,0,3.13V.626A.631.631,0,0,1,.626,0a.631.631,0,0,1,.626.626v2.5A.631.631,0,0,1,.626,3.757Z" transform="translate(12.73 1.044)" fill="#c7cad0"/>
    <path id="Vector-3" data-name="Vector" d="M7.3,1.252H.626A.631.631,0,0,1,0,.626.631.631,0,0,1,.626,0H7.3A.631.631,0,0,1,7.93.626.631.631,0,0,1,7.3,1.252Z" transform="translate(5.217 10.226)" fill="#c7cad0"/>
    <path id="Vector-4" data-name="Vector" d="M4.8,1.252H.626A.631.631,0,0,1,0,.626.631.631,0,0,1,.626,0H4.8a.631.631,0,0,1,.626.626A.631.631,0,0,1,4.8,1.252Z" transform="translate(5.217 13.565)" fill="#c7cad0"/>
    <path id="Vector-5" data-name="Vector" d="M10.643,16.7H5.635C.943,16.7,0,14.483,0,10.911V5.76C0,1.8,1.336.192,4.767,0h6.745c3.431.192,4.767,1.8,4.767,5.76v5.151C16.278,14.483,15.335,16.7,10.643,16.7ZM4.8,1.252c-2.337.134-3.548.868-3.548,4.508v5.151c0,3.2.609,4.533,4.383,4.533h5.009c3.773,0,4.383-1.336,4.383-4.533V5.76c0-3.631-1.2-4.374-3.565-4.508Z" transform="translate(1.879 2.296)" fill="#c7cad0"/>
  </g>
</svg>
