<svg xmlns="http://www.w3.org/2000/svg" width="17.021" height="16.332" viewBox="0 0 17.021 16.332">
  <g id="Group_59439" data-name="Group 59439" transform="translate(-0.99 -1.338)">
    <path id="Vector" d="M6.135,1.188H.594A.6.6,0,0,1,0,.594.6.6,0,0,1,.594,0H6.135a.6.6,0,0,1,.594.594A.6.6,0,0,1,6.135,1.188Z" transform="translate(6.135 7.719)" fill="#c7cad0"/>
    <path id="Vector-2" data-name="Vector" d="M11.677,16.332a1.407,1.407,0,0,1-.768-.23L7.537,13.854H4.552A4.309,4.309,0,0,1,0,9.3V4.552A4.309,4.309,0,0,1,4.552,0h7.917a4.309,4.309,0,0,1,4.552,4.552V9.3a4.269,4.269,0,0,1-3.958,4.52v1.124a1.369,1.369,0,0,1-.728,1.219A1.4,1.4,0,0,1,11.677,16.332ZM4.552,1.18A3.154,3.154,0,0,0,1.188,4.544v4.75a3.154,3.154,0,0,0,3.365,3.365H7.719a.569.569,0,0,1,.333.1l3.523,2.343a.2.2,0,0,0,.309-.166V13.252a.6.6,0,0,1,.594-.594,3.154,3.154,0,0,0,3.365-3.365V4.544A3.154,3.154,0,0,0,12.477,1.18Z" transform="translate(0.99 1.338)" fill="#c7cad0"/>
  </g>
</svg>
