<svg xmlns="http://www.w3.org/2000/svg" width="7.827" height="10.321" viewBox="0 0 7.827 10.321">
  <path id="wait" d="M43.354,9.613h-.607V8.525a3.454,3.454,0,0,0-1.7-2.849.617.617,0,0,1-.221-.516.617.617,0,0,1,.221-.516,3.454,3.454,0,0,0,1.7-2.848V.708h.607a.354.354,0,0,0,0-.708H36.235a.354.354,0,1,0,0,.708h.607V1.8a3.454,3.454,0,0,0,1.7,2.848.617.617,0,0,1,.221.516.617.617,0,0,1-.221.516,3.454,3.454,0,0,0-1.7,2.848V9.613h-.607a.354.354,0,0,0,0,.708h7.119a.354.354,0,0,0,0-.708Zm-5.8-1.088a2.841,2.841,0,0,1,1.387-2.26,1.308,1.308,0,0,0,.535-1.1,1.308,1.308,0,0,0-.535-1.1A2.841,2.841,0,0,1,37.55,1.8V.708h4.489V1.8a2.84,2.84,0,0,1-1.387,2.26,1.308,1.308,0,0,0-.535,1.1,1.308,1.308,0,0,0,.535,1.1,2.841,2.841,0,0,1,1.387,2.26V9.613H37.55Z" transform="translate(-35.881)" fill="#868991"/>
</svg>
