<svg xmlns="http://www.w3.org/2000/svg" width="12.099" height="14.53" viewBox="0 0 12.099 14.53">
  <path id="Icon_ionic-md-flag" data-name="Icon ionic-md-flag" d="M9.956,5.5a8.036,8.036,0,0,0-2.206.239V11.32l.169-.021c.426-.053,1.447-.094,2.041-.094a8.954,8.954,0,0,1,2.308.386c.314.082.61.16.908.22l.066.013a15.137,15.137,0,0,0,3.021.4,11.826,11.826,0,0,0,1.452-.113l.134-.016V6.264a13.114,13.114,0,0,1-1.632.12,13.043,13.043,0,0,1-2.791-.379c-.163-.035-.327-.07-.491-.1l-.008,0a14.929,14.929,0,0,0-2.972-.4m0-1a15.728,15.728,0,0,1,3.18.423,15.1,15.1,0,0,0,3.082.461,14.883,14.883,0,0,0,1.875-.159c.284-.034.567-.076.756-.113v7.861c-.227.038-.473.068-.756.1a15.006,15.006,0,0,1-1.83.151,16.217,16.217,0,0,1-3.286-.435,15.3,15.3,0,0,0-3.017-.586c-.567,0-1.552.041-1.918.086V19.03l-.535-.01H6.75V5.116l.159-.11A6.031,6.031,0,0,1,9.956,4.5Z" transform="translate(-6.75 -4.5)" fill="#868991"/>
</svg>
