<svg xmlns="http://www.w3.org/2000/svg" width="11.863" height="10.171" viewBox="0 0 11.863 10.171">
  <g id="Icon_ionic-ios-folder-open" data-name="Icon ionic-ios-folder-open" transform="translate(-2.252 -4.5)">
    <path id="Path_30" data-name="Path 30" d="M14.671,5.957a.584.584,0,0,0-.6-.609H8.921a.2.2,0,0,1-.162-.064l-.6-.6-.005-.005A.576.576,0,0,0,7.7,4.5H5.154a.63.63,0,0,0-.654.609V7.043H14.671Z" transform="translate(-1.401)" fill="#66bd50"/>
    <path id="Path_31" data-name="Path 31" d="M3.1,13.219h-.22c-.339,0-.67.135-.622.644s.622,5.581.622,5.581c.072.471.31.662.662.662h9.336c.336,0,.556-.207.609-.662,0,0,.588-4.9.625-5.443s-.236-.781-.625-.781H3.1Z" transform="translate(0 -5.434)" fill="#66bd50"/>
  </g>
</svg>
