<svg xmlns="http://www.w3.org/2000/svg" width="36" height="36" viewBox="0 0 36 36">
  <g id="Group_58964" data-name="Group 58964" transform="translate(-697 -831)">
    <circle id="Ellipse_11" data-name="Ellipse 11" cx="18" cy="18" r="18" transform="translate(697 831)" fill="#fff"/>
    <g id="Google__G__Logo" transform="translate(1887.577 1602.171)">
      <path id="Path_8" data-name="Path 8" d="M-1089.33-687.239v4.647h6.458a5.533,5.533,0,0,1-2.411,3.611l3.895,3.022a11.724,11.724,0,0,0,3.578-8.825,13.785,13.785,0,0,0-.218-2.455Z" transform="translate(-83.247 -68.114)" fill="#4285f4"/>
      <path id="Path_9" data-name="Path 9" d="M-1170.373-651.791l-.878.672-3.109,2.422h0a12,12,0,0,0,10.712,6.622,11.453,11.453,0,0,0,7.942-2.9L-1159.6-648a7.148,7.148,0,0,1-4.047,1.156,7.164,7.164,0,0,1-6.72-4.942Z" transform="translate(-8.929 -99.096)" fill="#34a853"/>
      <path id="Path_10" data-name="Path 10" d="M-1183.29-712.61a11.852,11.852,0,0,0-1.287,5.378,11.852,11.852,0,0,0,1.287,5.378c0,.011,3.993-3.1,3.993-3.1a7.188,7.188,0,0,1-.382-2.28,7.187,7.187,0,0,1,.382-2.28Z" transform="translate(0 -45.939)" fill="#fbbc05"/>
      <path id="Path_11" data-name="Path 11" d="M-1163.649-760.393a6.547,6.547,0,0,1,4.593,1.789l3.436-3.436a11.512,11.512,0,0,0-8.029-3.131,11.979,11.979,0,0,0-10.713,6.622l3.993,3.1A7.164,7.164,0,0,1-1163.649-760.393Z" transform="translate(-8.928)" fill="#ea4335"/>
    </g>
  </g>
</svg>
