<svg xmlns="http://www.w3.org/2000/svg" width="24" height="24" viewBox="0 0 24 24">
  <g id="Group_75" data-name="Group 75" transform="translate(-1380 -855)">
    <g id="Ellipse_7" data-name="Ellipse 7" transform="translate(1380 855)" fill="none" stroke="#646c78" stroke-width="0.8">
      <circle cx="12" cy="12" r="12" stroke="none"/>
      <circle cx="12" cy="12" r="11.6" fill="none"/>
    </g>
    <g id="vuesax_outline_user-add" data-name="vuesax/outline/user-add" transform="translate(1385.596 860.341)">
      <g id="user-add" transform="translate(0 0)">
        <path id="Vector" d="M3.035,6.07A3.035,3.035,0,1,1,6.07,3.035,3.039,3.039,0,0,1,3.035,6.07Zm0-5.278A2.243,2.243,0,1,0,5.278,3.035,2.248,2.248,0,0,0,3.035.792Z" transform="translate(3.299 0.66)" fill="#646c78"/>
        <path id="Vector-2" data-name="Vector" d="M.4,4.487a.4.4,0,0,1-.4-.4C0,1.837,2.212,0,4.93,0A5.75,5.75,0,0,1,6.492.211a.394.394,0,1,1-.211.76A5,5,0,0,0,4.93.792C2.65.792.792,2.27.792,4.091A.4.4,0,0,1,.4,4.487Z" transform="translate(1.404 7.522)" fill="#646c78"/>
        <path id="Vector-3" data-name="Vector" d="M2.507,5.014A2.481,2.481,0,0,1,.834,4.365,2.26,2.26,0,0,1,.359,3.8,2.5,2.5,0,0,1,.707.76,2.5,2.5,0,0,1,4.37.834a2.5,2.5,0,0,1,.644,1.673,2.218,2.218,0,0,1-.079.591,2.25,2.25,0,0,1-.29.7A2.483,2.483,0,0,1,2.507,5.014Zm0-4.223A1.712,1.712,0,0,0,.792,2.507a1.672,1.672,0,0,0,.248.881,1.533,1.533,0,0,0,.322.391,1.691,1.691,0,0,0,1.145.449A1.719,1.719,0,0,0,3.975,3.4a1.644,1.644,0,0,0,.2-.48,1.535,1.535,0,0,0,.053-.406,1.711,1.711,0,0,0-.443-1.145A1.667,1.667,0,0,0,2.507.792Z" transform="translate(6.994 6.994)" fill="#646c78"/>
        <path id="Vector-4" data-name="Vector" d="M1.974.792H.4A.4.4,0,0,1,0,.4.4.4,0,0,1,.4,0H1.974a.4.4,0,0,1,.4.4A.4.4,0,0,1,1.974.792Z" transform="translate(8.319 9.095)" fill="#646c78"/>
        <path id="Vector-5" data-name="Vector" d="M.4,2.37a.4.4,0,0,1-.4-.4V.4A.4.4,0,0,1,.4,0a.4.4,0,0,1,.4.4V1.974A.4.4,0,0,1,.4,2.37Z" transform="translate(9.105 8.324)" fill="#646c78"/>
      </g>
    </g>
  </g>
</svg>
