<svg id="Group_1" data-name="Group 1" xmlns="http://www.w3.org/2000/svg" width="174.268" height="38.062" viewBox="0 0 174.268 38.062">
  <g id="spericorn-black-logo" transform="translate(0)">
    <g id="Group_6457" data-name="Group 6457">
      <path id="Path_2260" data-name="Path 2260" d="M90.749,75.848a3.507,3.507,0,0,0,2.57-1.067,3.559,3.559,0,0,0,1.066-2.615,3.64,3.64,0,0,0-3.635-3.636A3.589,3.589,0,0,0,88.13,69.6a3.52,3.52,0,0,0-1.064,2.57,3.643,3.643,0,0,0,3.6,3.682C90.7,75.849,90.722,75.849,90.749,75.848Z" transform="translate(-0.248 -68.528)" fill="#2b2e33"/>
      <path id="Path_2261" data-name="Path 2261" d="M169.167,79.041a9.4,9.4,0,0,0-7.112-2.862,9.533,9.533,0,0,0-7.228,2.886,10.444,10.444,0,0,0-2.712,7.458V99.071h5.654V87.512c0-5.131,2.42-5.724,4.241-5.724a3.591,3.591,0,0,1,3.064,1.321,6.73,6.73,0,0,1,1.131,4.222v11.74h5.652V86.477A10.425,10.425,0,0,0,169.167,79.041Z" transform="translate(2.402 -68.217)" fill="#2b2e33"/>
      <path id="Path_2262" data-name="Path 2262" d="M66.209,78.538a11.172,11.172,0,0,0-7.049-2.357h-.1a11.075,11.075,0,0,0-6.95,2.357,12.5,12.5,0,0,0-1.22,1.041,11.107,11.107,0,0,0-3.456,8.16,11.3,11.3,0,0,0,3.452,8.335,11.533,11.533,0,0,0,8.373,3.4,11.213,11.213,0,0,0,8.2-3.406,11.521,11.521,0,0,0,2.733-4.237l.256-.7h-6.3l-.156.216a7.112,7.112,0,0,1-.642.761,5.376,5.376,0,0,1-3.993,1.769,5.882,5.882,0,0,1-4.382-1.752,5.749,5.749,0,0,1-1.222-1.747H70.582l.079-.431a11.585,11.585,0,0,0,.221-2.2,11.105,11.105,0,0,0-3.452-8.163A12.391,12.391,0,0,0,66.209,78.538Zm-11.17,4.218.433.325a5.905,5.905,0,0,1,7.4.026l.348-.394-.258.475c.132.119.263.24.39.375a6.081,6.081,0,0,1,1.172,1.723H53.785a6.032,6.032,0,0,1,1.171-1.721c.128-.134.258-.256.374-.36l-.29-.445Z" transform="translate(-1.863 -68.217)" fill="#2b2e33"/>
      <path id="Path_2263" data-name="Path 2263" d="M10.932,81.089a4.155,4.155,0,0,1,2.555-.654,4.377,4.377,0,0,1,2.739.768,2.9,2.9,0,0,1,1.095,2.039l.128.976h6.1l-.136-1.249a8.456,8.456,0,0,0-3.152-6.005,10.639,10.639,0,0,0-6.731-2.081,10.255,10.255,0,0,0-6.869,2.208,7.35,7.35,0,0,0-2.654,5.817A5.852,5.852,0,0,0,5.14,86.515l.068.094a4.039,4.039,0,0,0,.384.467,9.5,9.5,0,0,0,3.532,2.246,22.219,22.219,0,0,0,3.07.913l.2.068a14.886,14.886,0,0,1,3.7,1.249c.776.416.883.847.883,1.206a1.709,1.709,0,0,1-.712,1.448,4.16,4.16,0,0,1-2.554.655,4.352,4.352,0,0,1-2.739-.77,2.89,2.89,0,0,1-1.1-2.038l-.127-.975H3.647l.136,1.242a8.48,8.48,0,0,0,3.152,6.009,10.653,10.653,0,0,0,6.731,2.081,10.241,10.241,0,0,0,6.863-2.2,7.338,7.338,0,0,0,2.654-5.818,5.883,5.883,0,0,0-1.13-3.615l-.462.343.386-.448a4,4,0,0,0-.375-.454,9.589,9.589,0,0,0-3.53-2.245,24.594,24.594,0,0,0-3.018-.9l-.251-.075a14.636,14.636,0,0,1-3.7-1.249c-.775-.416-.88-.845-.88-1.208A1.711,1.711,0,0,1,10.932,81.089Z" transform="translate(-3.647 -68.27)" fill="#2b2e33"/>
      <path id="Path_2264" data-name="Path 2264" d="M87.932,94.336c.079,1.271.735,4.267,5.072,4.717l.581.061V76.523H87.931Z" transform="translate(-0.213 -68.203)" fill="#2b2e33"/>
      <path id="Path_2265" data-name="Path 2265" d="M77.949,78.168V76.586H72.3v17.9c.054.995.58,4.267,5.089,4.587l.564.043V88.781c0-2.562.5-4.434,1.5-5.558.963-1.092,2.566-1.644,4.768-1.644h1.747V76.134H83.589A8.075,8.075,0,0,0,77.949,78.168Z" transform="translate(-0.85 -68.219)" fill="#2b2e33"/>
      <path id="Path_2266" data-name="Path 2266" d="M151.538,76.134h-2.377a8.076,8.076,0,0,0-5.635,2.034V76.586h-5.653v17.9c.052.995.579,4.267,5.088,4.587l.564.043V88.781c0-2.562.5-4.434,1.5-5.558.962-1.092,2.566-1.644,4.769-1.644h1.745Z" transform="translate(1.822 -68.219)" fill="#2b2e33"/>
      <path id="Path_2267" data-name="Path 2267" d="M35.753,76.3a11.182,11.182,0,0,0-8.118,3.3,10.743,10.743,0,0,0-3.311,7.07h-.041l.008,14.516a6.556,6.556,0,0,0,5.336,4.977l.624.117V97.531A11.381,11.381,0,0,0,47,87.721a11.144,11.144,0,0,0-3.294-8.075A10.82,10.82,0,0,0,35.753,76.3Zm-5.5,10.85a5.092,5.092,0,0,1,1.581-3.5,5.352,5.352,0,0,1,3.912-1.586,4.954,4.954,0,0,1,3.747,1.626,5.549,5.549,0,0,1,1.57,4.025A5.194,5.194,0,0,1,39.481,91.5a4.91,4.91,0,0,1-3.65,1.61,5.375,5.375,0,0,1-4.006-1.6,5.293,5.293,0,0,1-1.57-3.632Z" transform="translate(-2.806 -68.212)" fill="#2b2e33"/>
      <path id="Path_2268" data-name="Path 2268" d="M106.318,93.523a6,6,0,0,1-5.027-5.932,6.064,6.064,0,0,1,5.948-6.022c.833-.079,2.123-.109,4.016-.083l.532.007V76.3h-4.47a11.287,11.287,0,1,0-.216,22.573c.072,0,.145,0,.216,0h4.47V93.726l-.532.005A21.249,21.249,0,0,1,106.318,93.523Z" transform="translate(0.113 -68.212)" fill="#2b2e33"/>
      <g id="Group_6456" data-name="Group 6456" transform="translate(112.965 7.959)">
        <path id="Path_2269" data-name="Path 2269" d="M124.02,76.177a11.539,11.539,0,0,0-8.372,3.4,11.112,11.112,0,0,0-3.457,8.16,11.306,11.306,0,0,0,3.457,8.337,11.529,11.529,0,0,0,8.372,3.4,11.635,11.635,0,0,0,11.606-11.513,11.488,11.488,0,0,0-3.4-8.326A11.161,11.161,0,0,0,124.02,76.177Zm-4.277,7.339a5.847,5.847,0,0,1,4.277-1.732,5.432,5.432,0,0,1,4.1,1.775,6.079,6.079,0,0,1,1.716,4.4A5.689,5.689,0,0,1,128.1,92.1a5.376,5.376,0,0,1-3.993,1.769,5.98,5.98,0,0,1-6.13-5.826q0-.153,0-.306A5.619,5.619,0,0,1,119.743,83.516Z" transform="translate(-112.189 -76.175)" fill="#06b2ff"/>
        <path id="Path_2270" data-name="Path 2270" d="M127.881,87.537a4.267,4.267,0,1,1-4.267-4.267h0A4.268,4.268,0,0,1,127.881,87.537Z" transform="translate(-111.898 -75.886)" fill="#06b2ff"/>
      </g>
    </g>
  </g>
</svg>
