<svg xmlns="http://www.w3.org/2000/svg" width="146.966" height="32.099" viewBox="0 0 146.966 32.099">
  <g id="Group_1" data-name="Group 1" transform="translate(-3.647 -68.528)">
    <g id="spericorn-black-logo" transform="translate(3.647 68.528)">
      <g id="Group_6457" data-name="Group 6457">
        <path id="Path_2260" data-name="Path 2260" d="M90.172,74.7a2.958,2.958,0,0,0,2.167-.9,3,3,0,0,0,.9-2.206,3.07,3.07,0,0,0-3.066-3.067,3.026,3.026,0,0,0-2.209.9,2.969,2.969,0,0,0-.9,2.167A3.072,3.072,0,0,0,90.1,74.7Z" transform="translate(-13.85 -68.528)" fill="#fff"/>
        <path id="Path_2261" data-name="Path 2261" d="M166.494,78.592a7.928,7.928,0,0,0-6-2.414,8.04,8.04,0,0,0-6.1,2.434,8.808,8.808,0,0,0-2.287,6.29V95.483h4.768V85.735c0-4.327,2.041-4.827,3.577-4.827a3.029,3.029,0,0,1,2.584,1.114A5.676,5.676,0,0,1,164,85.583v9.9h4.767V84.863A8.792,8.792,0,0,0,166.494,78.592Z" transform="translate(-21.805 -69.463)" fill="#fff"/>
        <path id="Path_2262" data-name="Path 2262" d="M63.267,78.169a9.422,9.422,0,0,0-5.945-1.988h-.088a9.339,9.339,0,0,0-5.861,1.988,10.541,10.541,0,0,0-1.029.878,9.367,9.367,0,0,0-2.915,6.882,9.531,9.531,0,0,0,2.911,7.029A9.726,9.726,0,0,0,57.4,95.825a9.456,9.456,0,0,0,6.913-2.873,9.716,9.716,0,0,0,2.3-3.573l.216-.594H61.518l-.132.183a6,6,0,0,1-.542.642A4.534,4.534,0,0,1,57.478,91.1a4.961,4.961,0,0,1-3.7-1.477,4.848,4.848,0,0,1-1.03-1.474h14.2l.067-.363a9.77,9.77,0,0,0,.186-1.857A9.365,9.365,0,0,0,64.3,79.046,10.449,10.449,0,0,0,63.267,78.169Zm-9.42,3.557.365.274a4.98,4.98,0,0,1,6.241.022l.293-.333-.218.4c.111.1.222.2.329.316a5.128,5.128,0,0,1,.988,1.453H52.789a5.087,5.087,0,0,1,.987-1.452c.108-.113.218-.216.315-.3l-.245-.376Z" transform="translate(-9.002 -69.464)" fill="#fff"/>
        <path id="Path_2263" data-name="Path 2263" d="M9.791,80.115a3.5,3.5,0,0,1,2.155-.551,3.691,3.691,0,0,1,2.31.648,2.443,2.443,0,0,1,.923,1.719l.108.823h5.148L20.32,81.7a7.131,7.131,0,0,0-2.659-5.064,8.972,8.972,0,0,0-5.676-1.755,8.648,8.648,0,0,0-5.793,1.862,6.2,6.2,0,0,0-2.238,4.905,4.935,4.935,0,0,0,.952,3.041l.057.079a3.406,3.406,0,0,0,.324.394,8.014,8.014,0,0,0,2.979,1.894,18.737,18.737,0,0,0,2.589.77l.171.057a12.554,12.554,0,0,1,3.12,1.053c.655.351.744.714.744,1.017a1.441,1.441,0,0,1-.6,1.221,3.508,3.508,0,0,1-2.154.552,3.671,3.671,0,0,1-2.31-.649A2.437,2.437,0,0,1,8.9,89.36L8.8,88.538H3.647l.115,1.047a7.151,7.151,0,0,0,2.659,5.068A8.984,8.984,0,0,0,12.1,96.408a8.637,8.637,0,0,0,5.787-1.858,6.188,6.188,0,0,0,2.238-4.906,4.962,4.962,0,0,0-.953-3.048l-.39.29.326-.377a3.37,3.37,0,0,0-.316-.383,8.087,8.087,0,0,0-2.977-1.893,20.74,20.74,0,0,0-2.545-.763l-.212-.063a12.343,12.343,0,0,1-3.122-1.053C9.279,82,9.19,81.64,9.19,81.333A1.443,1.443,0,0,1,9.791,80.115Z" transform="translate(-3.647 -69.304)" fill="#fff"/>
        <path id="Path_2264" data-name="Path 2264" d="M87.932,91.546c.067,1.072.62,3.6,4.277,3.978l.49.052V76.523H87.931Z" transform="translate(-13.956 -69.506)" fill="#fff"/>
        <path id="Path_2265" data-name="Path 2265" d="M77.064,77.848V76.514H72.3v15.1c.046.839.489,3.6,4.292,3.868l.476.036V86.8c0-2.161.424-3.739,1.263-4.687a5.14,5.14,0,0,1,4.021-1.387h1.474V76.133h-2A6.81,6.81,0,0,0,77.064,77.848Z" transform="translate(-12.043 -69.458)" fill="#fff"/>
        <path id="Path_2266" data-name="Path 2266" d="M149.4,76.133h-2a6.811,6.811,0,0,0-4.752,1.715V76.514h-4.768v15.1c.044.839.488,3.6,4.291,3.868l.476.036V86.8c0-2.161.425-3.739,1.263-4.687a5.139,5.139,0,0,1,4.022-1.387H149.4Z" transform="translate(-20.064 -69.458)" fill="#fff"/>
        <path id="Path_2267" data-name="Path 2267" d="M33.956,76.3a9.43,9.43,0,0,0-6.846,2.781,9.06,9.06,0,0,0-2.792,5.962h-.034l.007,12.242a5.529,5.529,0,0,0,4.5,4.2l.527.1V94.2a9.6,9.6,0,0,0,14.125-8.273,9.4,9.4,0,0,0-2.778-6.81A9.125,9.125,0,0,0,33.956,76.3Zm-4.637,9.15A4.294,4.294,0,0,1,30.653,82.5a4.513,4.513,0,0,1,3.3-1.338,4.178,4.178,0,0,1,3.16,1.371,4.68,4.68,0,0,1,1.324,3.394A4.38,4.38,0,0,1,37.1,89.121a4.141,4.141,0,0,1-3.078,1.358,4.533,4.533,0,0,1-3.378-1.348,4.464,4.464,0,0,1-1.324-3.063Z" transform="translate(-6.171 -69.478)" fill="#fff"/>
        <path id="Path_2268" data-name="Path 2268" d="M104.689,90.825a5.06,5.06,0,0,1-4.239-5,5.114,5.114,0,0,1,5.016-5.078c.7-.067,1.79-.092,3.387-.07l.449.006V76.3h-3.77a9.519,9.519,0,1,0-.183,19.036H109.3V91l-.449,0A17.919,17.919,0,0,1,104.689,90.825Z" transform="translate(-14.933 -69.479)" fill="#fff"/>
        <g id="Group_6456" data-name="Group 6456" transform="translate(95.267 6.712)">
          <path id="Path_2269" data-name="Path 2269" d="M122.167,76.177a9.731,9.731,0,0,0-7.06,2.867,9.371,9.371,0,0,0-2.916,6.882,9.535,9.535,0,0,0,2.916,7.031,9.723,9.723,0,0,0,7.06,2.867,9.812,9.812,0,0,0,9.788-9.709,9.688,9.688,0,0,0-2.87-7.022A9.413,9.413,0,0,0,122.167,76.177Zm-3.607,6.189a4.931,4.931,0,0,1,3.607-1.46,4.581,4.581,0,0,1,3.456,1.5,5.126,5.126,0,0,1,1.447,3.711,4.8,4.8,0,0,1-1.46,3.493,4.534,4.534,0,0,1-3.368,1.492,5.043,5.043,0,0,1-5.17-4.913q0-.129,0-.258A4.738,4.738,0,0,1,118.559,82.366Z" transform="translate(-112.189 -76.175)" fill="#06b2ff"/>
          <path id="Path_2270" data-name="Path 2270" d="M126.544,86.869a3.6,3.6,0,1,1-3.6-3.6h0A3.6,3.6,0,0,1,126.544,86.869Z" transform="translate(-113.065 -77.043)" fill="#06b2ff"/>
        </g>
      </g>
    </g>
  </g>
</svg>
