<svg xmlns="http://www.w3.org/2000/svg" width="24" height="24" viewBox="0 0 24 24">
  <g id="Group_58846" data-name="Group 58846" transform="translate(-20 -455.171)">
    <rect id="Rectangle_3" data-name="Rectangle 3" width="24" height="24" rx="8" transform="translate(20 455.171)" fill="#ef934d"/>
    <path id="Icon_awesome-project-diagram" data-name="Icon awesome-project-diagram" d="M7.407,6.172H4.938a.617.617,0,0,0-.617.617V9.259a.617.617,0,0,0,.617.617H7.407a.617.617,0,0,0,.617-.617V6.79A.617.617,0,0,0,7.407,6.172ZM3.7.617A.617.617,0,0,0,3.086,0H.617A.617.617,0,0,0,0,.617V3.086A.617.617,0,0,0,.617,3.7H2.464l1.411,2.47a1.23,1.23,0,0,1,1.063-.618h.005L3.7,3.385V2.469H8.024V1.234H3.7ZM11.728,0H9.259a.617.617,0,0,0-.617.617V3.086a.617.617,0,0,0,.617.617h2.469a.617.617,0,0,0,.617-.617V.617A.617.617,0,0,0,11.728,0Z" transform="translate(26 463.171)" fill="#fff"/>
  </g>
</svg>
