<svg xmlns="http://www.w3.org/2000/svg" width="47" height="47" viewBox="0 0 47 47">
  <g id="Group_57770" data-name="Group 57770" transform="translate(-9494.676 -1369.676)">
    <circle id="Ellipse_482" data-name="Ellipse 482" cx="23.5" cy="23.5" r="23.5" transform="translate(9494.676 1369.676)" fill="#5c79ee" opacity="0.18"/>
    <path id="Union_25" data-name="Union 25" d="M15.443,23.535a1.724,1.724,0,0,1-1.614-1.055,1.59,1.59,0,0,1,.451-1.823L16.2,18.989h0l-1.916-1.67a1.6,1.6,0,0,1-.456-1.823,1.724,1.724,0,0,1,1.614-1.055h2.8A1.724,1.724,0,0,1,19.856,15.5a1.605,1.605,0,0,1-.451,1.823l-1.917,1.67h-.005L19.4,20.658a1.591,1.591,0,0,1,.451,1.823,1.719,1.719,0,0,1-1.613,1.055Zm.213-2.064a.316.316,0,0,0,.323.309h1.727a.319.319,0,0,0,.322-.309.316.316,0,0,0-.322-.309H15.979A.32.32,0,0,0,15.656,21.471Zm0-4.96a.316.316,0,0,0,.323.309h1.727a.309.309,0,1,0,0-.618H15.979A.32.32,0,0,0,15.656,16.511ZM0,12.12A9.5,9.5,0,0,1,9.68,2.835,9.5,9.5,0,0,1,19.36,12.12c0,.268-.023.525-.045.782a4.052,4.052,0,0,0-.737-.064H15.3a3.14,3.14,0,0,0-3.382,3.241v3.145a3.335,3.335,0,0,0,.49,1.787A10.391,10.391,0,0,1,9.68,21.4,9.5,9.5,0,0,1,0,12.12Zm8.842-5.7v5.349a.838.838,0,0,0,1.675,0V6.418a.838.838,0,0,0-1.675,0ZM6.453,1.551a.785.785,0,0,1-.8-.77A.794.794,0,0,1,6.453,0h6.453a.784.784,0,0,1,.8.77.793.793,0,0,1-.8.781Z" transform="translate(9508.075 1382.208)" fill="#5c79ee"/>
  </g>
</svg>
