<svg xmlns="http://www.w3.org/2000/svg" width="47" height="47" viewBox="0 0 47 47">
  <g id="Group_57760" data-name="Group 57760" transform="translate(-879 -109)">
    <circle id="Ellipse_482" data-name="Ellipse 482" cx="23.5" cy="23.5" r="23.5" transform="translate(879 109)" fill="#ef934d" opacity="0.18"/>
    <g id="start-up" transform="translate(891 121)">
      <path id="Path_22" data-name="Path 22" d="M73.221,283.862a.677.677,0,0,0,.126.782l.165.165c.478-.566,1.035-1.181,1.711-1.857.048-.048.1-.071.145-.115L74.3,281.773C73.685,282.892,73.324,283.657,73.221,283.862Zm0,0" transform="translate(-69.85 -269.065)" fill="#ef934d"/>
      <path id="Path_23" data-name="Path 23" d="M164.744,389.707c-.677.677-1.29,1.235-1.854,1.714l.224.224a.676.676,0,0,0,.788.123c.35-.181.9-.44,2.071-1.091l-1.115-1.115c-.044.048-.067.1-.115.145Zm0,0" transform="translate(-155.544 -371.992)" fill="#ef934d"/>
      <path id="Path_24" data-name="Path 24" d="M65.74,311.511c-.489-.489-1.864-.051-2.51.6a17.991,17.991,0,0,0-3.575,4.6.677.677,0,0,0,.9.9,18.123,18.123,0,0,0,4.584-3.587c.71-.711,1.061-2.044.6-2.508Zm0,0" transform="translate(-56.901 -297.261)" fill="#ef934d"/>
      <path id="Path_25" data-name="Path 25" d="M2.112,165.4.2,167.318a.677.677,0,0,0,.653,1.132,5.559,5.559,0,0,1,2.557-.237,36.3,36.3,0,0,1,2.8-4.273c-.574-.368-2.47-.163-4.1,1.464Zm0,0" transform="translate(-0.001 -156.397)" fill="#ef934d"/>
      <path id="Path_26" data-name="Path 26" d="M246.013,382.532a.675.675,0,0,0,.782-.126l1.914-1.913c1.481-1.482,1.742-3.394,1.406-4a38.624,38.624,0,0,1-4.276,2.779,8.289,8.289,0,0,1-.191,2.557A.675.675,0,0,0,246.013,382.532Zm0,0" transform="translate(-234.561 -359.512)" fill="#ef934d"/>
      <path id="Path_27" data-name="Path 27" d="M285.237,137.9a2.03,2.03,0,1,0,2.87,0A2.032,2.032,0,0,0,285.237,137.9Zm0,0" transform="translate(-271.806 -131.116)" fill="#ef934d"/>
      <path id="Path_28" data-name="Path 28" d="M393.336.661a.676.676,0,0,0-.624-.624,13.374,13.374,0,0,0-4.939.575,5.68,5.68,0,0,0,1.683,3.3,5.662,5.662,0,0,0,3.369,1.68,13.99,13.99,0,0,0,.511-4.936Zm0,0" transform="translate(-370.284 -0.001)" fill="#ef934d"/>
      <path id="Path_29" data-name="Path 29" d="M127.4,27.787A7.107,7.107,0,0,1,125.364,24c-4.063,1.666-7.952,5.3-11.025,10.416l1.527,1.527a2.849,2.849,0,0,1,3.113.268,2.846,2.846,0,0,1,.267,3.112l1.577,1.577c3.933-2.37,8.511-6.1,10.458-11.072a7.073,7.073,0,0,1-3.883-2.036Zm-.957,5.741a3.383,3.383,0,1,1,0-4.784A3.387,3.387,0,0,1,126.441,33.527Zm0,0" transform="translate(-109.182 -22.914)" fill="#ef934d"/>
    </g>
  </g>
</svg>
