<svg xmlns="http://www.w3.org/2000/svg" width="24" height="24" viewBox="0 0 24 24">
  <g id="Group_58845" data-name="Group 58845" transform="translate(-304 -10)">
    <rect id="Rectangle_3" data-name="Rectangle 3" width="24" height="24" rx="8" transform="translate(304 10)" fill="#ac80f7"/>
    <g id="start-up" transform="translate(310 16)">
      <path id="Path_22" data-name="Path 22" d="M73.186,282.856a.351.351,0,0,0,.065.405l.086.086c.248-.294.537-.612.887-.962.025-.025.05-.037.075-.06l-.552-.552C73.427,282.353,73.24,282.75,73.186,282.856Zm0,0" transform="translate(-71.439 -275.185)" fill="#fff"/>
      <path id="Path_23" data-name="Path 23" d="M163.851,389.637c-.351.351-.669.64-.961.888l.116.116a.35.35,0,0,0,.408.064c.182-.094.467-.228,1.074-.566l-.578-.578c-.023.025-.035.05-.06.075Zm0,0" transform="translate(-159.082 -380.454)" fill="#fff"/>
      <path id="Path_24" data-name="Path 24" d="M62.777,311.41c-.253-.253-.966-.026-1.3.309a9.327,9.327,0,0,0-1.853,2.383.351.351,0,0,0,.469.468,9.394,9.394,0,0,0,2.376-1.859c.368-.368.55-1.06.309-1.3Zm0,0" transform="translate(-58.195 -304.024)" fill="#fff"/>
      <path id="Path_25" data-name="Path 25" d="M1.1,164.624l-.992.992a.351.351,0,0,0,.339.587,2.882,2.882,0,0,1,1.325-.123,18.82,18.82,0,0,1,1.452-2.215,2.143,2.143,0,0,0-2.124.759Zm0,0" transform="translate(-0.001 -159.954)" fill="#fff"/>
      <path id="Path_26" data-name="Path 26" d="M245.833,379.623a.35.35,0,0,0,.406-.065l.992-.992a2.2,2.2,0,0,0,.729-2.074,20.021,20.021,0,0,1-2.216,1.441,4.3,4.3,0,0,1-.1,1.325A.35.35,0,0,0,245.833,379.623Zm0,0" transform="translate(-239.897 -367.69)" fill="#fff"/>
      <path id="Path_27" data-name="Path 27" d="M284.951,137.616a1.052,1.052,0,1,0,1.488,0A1.053,1.053,0,0,0,284.951,137.616Zm0,0" transform="translate(-277.989 -134.098)" fill="#fff"/>
      <path id="Path_28" data-name="Path 28" d="M390.657.343a.35.35,0,0,0-.324-.323,6.933,6.933,0,0,0-2.56.3,2.944,2.944,0,0,0,.872,1.713,2.935,2.935,0,0,0,1.747.871,7.252,7.252,0,0,0,.265-2.559Zm0,0" transform="translate(-378.707 -0.001)" fill="#fff"/>
      <path id="Path_29" data-name="Path 29" d="M121.109,25.961A3.684,3.684,0,0,1,120.054,24a12.716,12.716,0,0,0-5.715,5.4l.791.791a1.257,1.257,0,0,1,1.752,1.752l.817.817c2.039-1.229,4.412-3.164,5.421-5.74a3.667,3.667,0,0,1-2.013-1.056Zm-.5,2.976a1.754,1.754,0,1,1,0-2.48A1.756,1.756,0,0,1,120.612,28.937Zm0,0" transform="translate(-111.666 -23.435)" fill="#fff"/>
    </g>
  </g>
</svg>
