<svg xmlns="http://www.w3.org/2000/svg" width="47" height="47" viewBox="0 0 47 47">
  <g id="Group_57771" data-name="Group 57771" transform="translate(-8294 -1506)">
    <circle id="Ellipse_482" data-name="Ellipse 482" cx="23.5" cy="23.5" r="23.5" transform="translate(8294 1506)" fill="#de4841" opacity="0.18"/>
    <g id="vuesax_bold_verify" data-name="vuesax/bold/verify" transform="translate(8303.139 1515.139)">
      <g id="verify" transform="translate(0 0)">
        <path id="Vector" d="M23.337,10.433,21.714,8.548a2.645,2.645,0,0,1-.561-1.5V5.015a2.312,2.312,0,0,0-2.3-2.3H16.821a2.677,2.677,0,0,1-1.5-.561L13.432.528a2.4,2.4,0,0,0-3.007,0L8.551,2.163a2.753,2.753,0,0,1-1.5.549H4.982a2.312,2.312,0,0,0-2.3,2.3V7.056A2.716,2.716,0,0,1,2.13,8.548l-1.611,1.9a2.4,2.4,0,0,0,0,2.983l1.611,1.9a2.716,2.716,0,0,1,.549,1.492v2.041a2.312,2.312,0,0,0,2.3,2.3H7.047a2.677,2.677,0,0,1,1.5.561l1.886,1.623a2.4,2.4,0,0,0,3.007,0l1.886-1.623a2.645,2.645,0,0,1,1.5-.561h2.029a2.312,2.312,0,0,0,2.3-2.3V16.83a2.677,2.677,0,0,1,.561-1.5l1.623-1.886A2.421,2.421,0,0,0,23.337,10.433Zm-6.444-.752-5.764,5.764a.893.893,0,0,1-1.265,0L6.975,12.558A.894.894,0,1,1,8.24,11.293L10.5,13.548l5.132-5.132a.894.894,0,0,1,1.265,1.265Z" transform="translate(2.393 2.384)" fill="#de4841"/>
        <path id="Vector-2" data-name="Vector" d="M0,0H28.642V28.642H0Z" transform="translate(28.642 28.642) rotate(180)" fill="none" opacity="0"/>
      </g>
    </g>
  </g>
</svg>
