<svg xmlns="http://www.w3.org/2000/svg" width="14.346" height="14.346" viewBox="0 0 14.346 14.346">
  <g id="graph" transform="translate(-2 -2)">
    <path id="Path_10402" data-name="Path 10402" d="M6.3,2A4.3,4.3,0,0,0,2,6.3v5.738a4.3,4.3,0,0,0,4.3,4.3h5.738a4.3,4.3,0,0,0,4.3-4.3V9.412a.478.478,0,0,0-.956,0v2.63a3.347,3.347,0,0,1-3.347,3.347H6.3a3.347,3.347,0,0,1-3.347-3.347V6.3A3.347,3.347,0,0,1,6.3,2.956h5.738A3.347,3.347,0,0,1,15.389,6.3v.717a.478.478,0,1,0,.956,0V6.3a4.3,4.3,0,0,0-4.3-4.3Z" fill="#53575e"/>
    <path id="Path_10403" data-name="Path 10403" d="M30.956,17.478a.478.478,0,1,0-.956,0v5.977a.478.478,0,0,0,.956,0Z" transform="translate(-21.305 -11.414)" fill="#53575e"/>
    <path id="Path_10404" data-name="Path 10404" d="M18.956,24.478a.478.478,0,0,0-.956,0v4.3a.478.478,0,0,0,.956,0Z" transform="translate(-12.174 -16.74)" fill="#53575e"/>
    <path id="Path_10405" data-name="Path 10405" d="M42.956,32.478a.478.478,0,0,0-.956,0v2.391a.478.478,0,1,0,.956,0Z" transform="translate(-30.436 -22.827)" fill="#53575e"/>
  </g>
</svg>
