<svg xmlns="http://www.w3.org/2000/svg" width="16.645" height="16.645" viewBox="0 0 16.645 16.645">
  <g id="Group_59436" data-name="Group 59436" transform="translate(-326 -716)">
    <path id="Ellipse_33" data-name="Ellipse 33" d="M8.323.832a7.49,7.49,0,1,0,7.49,7.49A7.5,7.5,0,0,0,8.323.832m0-.832A8.323,8.323,0,1,1,0,8.323,8.323,8.323,0,0,1,8.323,0Z" transform="translate(326 716)" fill="#c6cad0"/>
    <path id="Icon_feather-star" data-name="Icon feather-star" d="M8.374,2.5a.416.416,0,0,1,.373.232l1.59,3.221,3.555.52a.416.416,0,0,1,.23.71L11.55,9.687l.607,3.539a.416.416,0,0,1-.6.439L8.374,11.993,5.195,13.665a.416.416,0,0,1-.6-.439L5.2,9.687,2.626,7.182a.416.416,0,0,1,.23-.71l3.555-.52L8,2.732A.416.416,0,0,1,8.374,2.5Zm4.564,4.674L10,6.745a.416.416,0,0,1-.313-.228L8.374,3.856,7.061,6.517a.416.416,0,0,1-.313.228L3.81,7.174l2.125,2.07a.416.416,0,0,1,.12.368l-.5,2.924L8.18,11.155a.416.416,0,0,1,.387,0l2.627,1.381-.5-2.924a.416.416,0,0,1,.12-.368Z" transform="translate(325.948 715.798)" fill="#c6cad0"/>
  </g>
</svg>
