<svg xmlns="http://www.w3.org/2000/svg" width="11.466" height="11.467" viewBox="0 0 11.466 11.467">
  <g id="Group_59299" data-name="Group 59299" transform="translate(-2366.412 -2844.719)">
    <path id="Vector" d="M3.14,1.57A1.57,1.57,0,1,1,1.57,0,1.57,1.57,0,0,1,3.14,1.57Z" transform="translate(2366.912 2845.219)" fill="none" stroke="#868991" stroke-linecap="round" stroke-linejoin="round" stroke-width="1"/>
    <path id="Vector-2" data-name="Vector" d="M3.14,1.57A1.57,1.57,0,1,1,1.57,0,1.57,1.57,0,0,1,3.14,1.57Z" transform="translate(2374.238 2848.882)" fill="none" stroke="#868991" stroke-linecap="round" stroke-linejoin="round" stroke-width="1"/>
    <path id="Vector-3" data-name="Vector" d="M3.14,1.57A1.57,1.57,0,1,1,1.57,0,1.57,1.57,0,0,1,3.14,1.57Z" transform="translate(2366.912 2852.546)" fill="none" stroke="#868991" stroke-linecap="round" stroke-linejoin="round" stroke-width="1"/>
    <path id="Vector-4" data-name="Vector" d="M5.757,2.094H2.094A1.874,1.874,0,0,1,0,0V4.187" transform="translate(2368.481 2848.359)" fill="none" stroke="#868991" stroke-linecap="round" stroke-linejoin="round" stroke-width="1"/>
  </g>
</svg>
