<svg xmlns="http://www.w3.org/2000/svg" width="11.492" height="13.255" viewBox="0 0 11.492 13.255">
  <g id="timer" transform="translate(-2.207 -1.325)">
    <path id="Vector" d="M5.746,0a5.749,5.749,0,1,0,5.746,5.752A5.753,5.753,0,0,0,5.746,0Zm.5,5.534a.5.5,0,0,1-.994,0V2.22a.5.5,0,1,1,.994,0Z" transform="translate(2.207 3.082)" fill="#b5a8cc"/>
    <path id="Vector-2" data-name="Vector" d="M4.308.961H.477A.475.475,0,0,1,0,.484.481.481,0,0,1,.477,0H4.308a.475.475,0,0,1,.477.477A.481.481,0,0,1,4.308.961Z" transform="translate(5.56 1.325)" fill="#b5a8cc"/>
  </g>
</svg>
